<svg xmlns="http://www.w3.org/2000/svg" width="410" height="404" viewBox="0 0 410 404" fill="none">
  <g clip-path="url(#clip0_2510_27)">
    <path d="M399.641 59.5256L215.643 388.545C211.756 395.456 201.769 395.592 197.682 388.789L9.24967 59.5458C5.08485 52.5817 10.9899 43.8016 18.8307 44.7586L205.027 67.2044C206.449 67.3786 207.882 67.1407 209.171 66.5157L390.316 0.97107C398.183 -2.22738 405.524 6.45675 401.494 13.7887L284.516 228.27C281.387 234.01 288.332 239.959 293.524 235.666L395.508 150.561C401.079 145.919 409.366 151.965 406.609 159.072L341.788 329.216C338.822 336.914 328.229 337.423 324.536 329.986L257.093 193.659C254.16 187.693 245.788 187.178 242.19 192.699L175.608 292.836C172.276 297.852 164.64 297.106 162.144 291.567L86.4338 129.12C84.4675 124.825 87.6521 119.917 92.3382 119.917C95.9975 119.917 99.229 122.308 100.282 125.788L124.471 205.946C126.33 212.067 135.494 211.688 136.795 205.479L152.87 128.371C153.822 123.756 158.119 120.512 162.701 121.235L205.254 127.965C210.942 128.86 214.382 122.132 210.635 118.053L141.115 42.7105C136.534 37.5806 141.746 29.3618 148.354 32.0013L373.58 122.254C377.284 123.738 380.531 119.285 377.757 116.264L227.333 50.0345C221.212 47.207 223.637 38.1066 230.232 38.9987L392.509 60.0365C400.139 61.0332 404.184 52.0526 399.641 59.5256Z" fill="url(#paint0_linear_2510_27)"/>
  </g>
  <defs>
    <linearGradient id="paint0_linear_2510_27" x1="6.00017" y1="32.9999" x2="235" y2="344" gradientUnits="userSpaceOnUse">
      <stop stop-color="#41D1FF"/>
      <stop offset="1" stop-color="#BD34FE"/>
    </linearGradient>
    <clipPath id="clip0_2510_27">
      <rect width="410" height="404" fill="white"/>
    </clipPath>
  </defs>
</svg>
